<?xml version="1.0" encoding="utf-8"?>
<!-- Generator: Adobe Illustrator 21.1.0, SVG Export Plug-In . SVG Version: 6.00 Build 0)  -->
<svg version="1.1" id="Layer_1" xmlns="http://www.w3.org/2000/svg" xmlns:xlink="http://www.w3.org/1999/xlink" x="0px" y="0px"
	 viewBox="0 0 70.1 69.8" style="enable-background:new 0 0 70.1 69.8;" xml:space="preserve">
<style type="text/css">
	.st0{clip-path:url(#SVGID_2_);fill:#FFFFFF;}
</style>
<g>
	<defs>
		<rect id="SVGID_1_" y="0" width="70.1" height="69.8"/>
	</defs>
	<clipPath id="SVGID_2_">
		<use xlink:href="#SVGID_1_"  style="overflow:visible;"/>
	</clipPath>
	<path class="st0" d="M15.7,67.4c0,1.3-1,2.3-2.3,2.3H3.6c-1.3,0-2.3-1-2.3-2.3v-42c0-1.3,1-2.3,2.3-2.3h9.8c1.3,0,2.3,1,2.3,2.3
		V67.4z"/>
	<path class="st0" d="M8.4,16.7C3.9,16.8,0,13.1,0,8.3C0.1,3.7,3.9,0,8.5,0c4.6,0,8.4,3.8,8.3,8.4C16.8,13.2,12.8,16.9,8.4,16.7"/>
	<path class="st0" d="M69.1,69.8H56.6c-0.6,0-1-0.5-1-1v-26c0-2.2-0.9-4.2-2.4-5.7c-1.5-1.5-3.5-2.4-5.8-2.4c-4.5,0.1-8,3.8-8,8.2
		v25.9c0,0.6-0.5,1-1,1H25.9c-0.6,0-1-0.5-1-1V24.2c0-0.6,0.5-1,1-1h12.2c0.6,0,1,0.5,1,1v5.1h0.1c0.3-0.4,0.5-0.8,0.8-1.2
		c2.6-3.7,6.8-6.1,11.6-6.1h2.5c8.8,0,15.9,7.1,15.9,15.9l0.1,31C70.1,69.4,69.6,69.8,69.1,69.8"/>
</g>
</svg>
