<?xml version="1.0" encoding="utf-8"?>
<!-- Generator: Adobe Illustrator 21.1.0, SVG Export Plug-In . SVG Version: 6.00 Build 0)  -->
<svg version="1.1" id="Layer_1" xmlns="http://www.w3.org/2000/svg" xmlns:xlink="http://www.w3.org/1999/xlink" x="0px" y="0px"
	 viewBox="0 0 73.7 59.8" style="enable-background:new 0 0 73.7 59.8;" xml:space="preserve">
<style type="text/css">
	.st0{clip-path:url(#SVGID_2_);fill:#FFFFFF;}
</style>
<g>
	<defs>
		<rect id="SVGID_1_" y="0" width="73.7" height="59.8"/>
	</defs>
	<clipPath id="SVGID_2_">
		<use xlink:href="#SVGID_1_"  style="overflow:visible;"/>
	</clipPath>
	<path class="st0" d="M66.2,14.9c0,0.6,0,1.2,0,1.8c0,23.8-19.3,43.1-43.1,43.1c-8.5,0-16.4-2.4-23.1-6.7l0,0
		c13,1.9,22.2-6.4,22.2-6.4C10.6,45.9,8.3,36.2,8.3,36.2C12.4,36.9,15,36,15,36c-13.1-3.1-12-15-12-15c3,1.8,6.5,1.9,6.5,1.9
		C-2,12.7,5.3,2.9,5.3,2.9c12.1,14.7,29.9,15.7,31.1,15.7c-0.3-1.1-0.4-2.3-0.4-3.4C35.9,6.8,42.7,0,51.1,0c4.4,0,8.3,1.8,11,4.8
		c0.8-0.2,1.5-0.4,2.2-0.7C68.6,2.7,71.7,1,71.7,1c-0.7,4.4-6.2,8.1-6.6,8.4c0,0,0,0,0,0c0,0,0,0,0,0c4.2-0.4,8.6-2.2,8.6-2.2
		C72.4,10,67,14.3,66.2,14.9"/>
</g>
</svg>
